<svg width="42" height="42" viewBox="0 0 42 42" fill="none" xmlns="http://www.w3.org/2000/svg">
<path d="M21.2379 3.9375C11.6419 3.80789 3.80789 11.6419 3.9375 21.2379C4.06547 30.441 11.559 37.9345 20.7621 38.0625C30.3598 38.1937 38.1921 30.3598 38.0609 20.7637C37.9345 11.559 30.441 4.06547 21.2379 3.9375ZM31.6083 30.7822C31.5756 30.8176 31.5356 30.8453 31.491 30.8634C31.4464 30.8815 31.3984 30.8896 31.3503 30.8871C31.3022 30.8846 31.2553 30.8716 31.2128 30.8489C31.1704 30.8262 31.1334 30.7945 31.1046 30.756C30.3709 29.796 29.4723 28.9741 28.4509 28.3287C26.3624 26.9883 23.7161 26.25 21 26.25C18.2839 26.25 15.6376 26.9883 13.5491 28.3287C12.5277 28.9738 11.6292 29.7954 10.8954 30.7552C10.8666 30.7937 10.8296 30.8254 10.7872 30.8481C10.7447 30.8708 10.6978 30.8838 10.6497 30.8863C10.6016 30.8888 10.5536 30.8807 10.509 30.8626C10.4644 30.8445 10.4244 30.8167 10.3917 30.7814C7.98465 28.183 6.62115 24.7876 6.5625 21.2461C6.42879 13.2636 12.979 6.58219 20.9647 6.5625C28.9505 6.54281 35.4375 13.0274 35.4375 21C35.4402 24.6269 34.0725 28.121 31.6083 30.7822Z" fill="white"/>
<path d="M21 11.8125C19.3823 11.8125 17.9197 12.4187 16.8804 13.5204C15.841 14.6221 15.3218 16.1454 15.4391 17.7803C15.677 21 18.1716 23.625 21 23.625C23.8284 23.625 26.3181 21 26.5609 17.7811C26.6823 16.1618 26.1671 14.6524 25.1106 13.5302C24.0671 12.4228 22.607 11.8125 21 11.8125Z" fill="white"/>
</svg>
